#!OML:ASF F:\VICON\USERDATA\INSTALL\rory3\rory3.ASF
:FULLY-SPECIFIED
:DEGREES
293
root -9.11353 15.8708 -3.59351 229.57 60.0604 222.439
lowerback -1.48823 2.60556 -1.75082
upperback -7.24238 3.70569 -0.0368172
thorax -6.80856 2.05321 0.756481
lowerneck -2.57186 -24.147 -13.4452
upperneck 13.7632 -36.7958 23.7519
head 12.1158 -16.2214 4.1702
rclavicle -1.49585e-014 3.18055e-015
rhumerus 8.60201 46.897 -53.2156
rradius 96.932
rwrist 16.0272
rhand -21.2787 45.8557
rfingers 7.12502
rthumb 5.10522 15.9372
lclavicle -1.49585e-014 3.18055e-015
lhumerus -198.447 -142.554 244.526
lradius 57.4081
lwrist -17.986
lhand 19.6549 25.4958
lfingers 7.12502
lthumb 44.2135 49.2986
rfemur 98.5922 -207.088 -182.642
rtibia 41.1815
rfoot -15.4856 -28.5393
rtoes 25.68
lfemur -35.0378 -14.0304 -1.19966
ltibia 62.7736
lfoot -36.6895 22.1796
ltoes -16.5395
294
root -9.22628 15.7796 -3.47734 226.491 64.4257 218.626
lowerback -0.520985 1.92082 -5.75726
upperback -7.12852 2.59754 -0.303844
thorax -7.42097 1.73709 2.72428
lowerneck -3.6209 -23.8408 -12.4677
upperneck 13.7701 -36.0454 22.6513
head 11.6802 -15.8795 3.86226
rclavicle -1.37161e-014 1.59028e-014
rhumerus 8.77434 43.9668 -50.2031
rradius 91.5058
rwrist 20.2442
rhand -26.4569 49.5422
rfingers 7.12502
rthumb 0.104422 19.5625
lclavicle -1.37161e-014 1.59028e-014
lhumerus -195.252 -144.984 240.8
lradius 58.4275
lwrist -22.0368
lhand 17.6212 23.7064
lfingers 7.12502
lthumb 42.3129 48.1907
rfemur 96.4254 -206.303 -192.194
rtibia 41.0268
rfoot -22.8548 -32.0124
rtoes 34.0822
lfemur -35.2837 -13.1498 -6.00696
ltibia 62.9011
lfoot -38.4431 22.9114
ltoes -13.859
295
root -9.36385 15.6868 -3.35181 228.014 65.623 219.759
lowerback 0.473269 1.63689 -5.5635
upperback -7.19233 2.18076 0.265063
thorax -8.04691 1.5508 3.21116
lowerneck -3.73313 -23.7902 -12.9699
upperneck 13.3327 -35.8253 22.5997
head 11.574 -15.8578 3.92451
rclavicle -3.40916e-014 -2.22639e-014
rhumerus 8.04487 40.3431 -47.3224
rradius 86.644
rwrist 20.8735
rhand -30.3756 54.6291
rfingers 7.12502
rthumb -3.68016 24.6811
lclavicle -3.40916e-014 -2.22639e-014
lhumerus -191.506 -145.966 237.46
lradius 59.4502
lwrist -24.1012
lhand 13.4355 23.979
lfingers 7.12502
lthumb 38.3771 49.6747
rfemur 94.9123 -205.486 -197.564
rtibia 40.5809
rfoot -30.9629 -33.7676
rtoes 39.2774
lfemur -36.5824 -11.5002 -5.97329
ltibia 63.7073
lfoot -37.7826 23.4872
ltoes -17.4124
296
root -9.4769 15.622 -3.26992 228.808 66.4463 220.175
lowerback 0.994827 1.15044 -5.13738
upperback -7.12974 1.55814 1.01255
thorax -8.22796 1.24442 3.80608
lowerneck -4.22618 -23.7007 -13.0988
upperneck 12.9858 -35.3879 21.8478
head 11.2858 -15.7499 3.77372
rclavicle 3.57812e-014 -4.77083e-015
rhumerus 7.88737 37.0941 -44.1208
rradius 81.8082
rwrist 18.3783
rhand -30.9545 56.3894
rfingers 7.12502
rthumb -4.23925 26.4519
lclavicle 3.57812e-014 -4.77083e-015
lhumerus -188.118 -147.839 234.486
lradius 60.2669
lwrist -25.4958
lhand 8.91464 23.9
lfingers 7.12502
lthumb 34.0962 50.6623
rfemur 94.2379 -204.392 -202.623
rtibia 40.4317
rfoot -39.1427 -33.1733
rtoes 43.4144
lfemur -37.8512 -10.3471 -6.08495
ltibia 64.5332
lfoot -36.8927 23.404
ltoes -19.5642
297
root -9.57113 15.5762 -3.21241 230.078 66.7665 221.353
lowerback 1.31272 0.643746 -3.7342
upperback -6.93877 0.981528 1.76679
thorax -8.11733 0.886134 3.86387
lowerneck -4.73239 -23.4915 -13.3253
upperneck 12.8313 -34.86 21.2886
head 11.1288 -15.5636 3.70697
rclavicle -4.67641e-014 -2.54444e-014
rhumerus 7.83716 33.8635 -41.1216
rradius 76.8939
rwrist 15.4177
rhand -31.1362 57.2745
rfingers 7.12502
rthumb -4.41463 27.3405
lclavicle -4.67641e-014 -2.54444e-014
lhumerus -184.73 -149.963 231.263
lradius 60.8067
lwrist -25.5815
lhand 3.00794 23.9157
lfingers 7.12502
lthumb 28.4681 51.7697
rfemur 94.4811 -203.648 -206.872
rtibia 39.9767
rfoot -47.093 -31.4597
rtoes 46.6017
lfemur -38.9304 -9.07462 -5.78854
ltibia 65.4542
lfoot -35.261 24.6812
ltoes -24.808
298
root -9.64975 15.5364 -3.15959 231.359 67.2188 222.716
lowerback 1.61135 0.267057 -2.17061
upperback -6.71174 0.57994 2.24964
thorax -7.98271 0.594444 3.52621
lowerneck -5.39406 -23.3391 -13.2483
upperneck 12.9261 -34.4597 20.6309
head 11.0403 -15.3918 3.53602
rclavicle 1.44119e-015 5.40694e-014
rhumerus 7.3018 30.4008 -38.7206
rradius 71.9397
rwrist 12.2963
rhand -29.9469 56.5075
rfingers 7.12502
rthumb -3.2662 26.5528
lclavicle 1.44119e-015 5.40694e-014
lhumerus -181.202 -151.911 227.549
lradius 61.6469
lwrist -25.5813
lhand -1.85882 23.8761
lfingers 7.12502
lthumb 23.8088 52.4208
rfemur 94.887 -203.302 -210.991
rtibia 39.7277
rfoot -53.7309 -30.0431
rtoes 49.1701
lfemur -39.6953 -7.5858 -5.66232
ltibia 66.313
lfoot -36.056 22.8506
ltoes -20.8568
299
root -9.67261 15.5692 -3.02663 236.371 68.2662 228.868
lowerback 2.21306 0.461791 -1.64327
upperback -6.24556 0.924054 3.28895
thorax -7.87347 0.757653 4.29804
lowerneck -6.06364 -23.1878 -13.1406
upperneck 13.1561 -34.0331 19.7317
head 10.9431 -15.2192 3.29797
rclavicle -4.55217e-014 3.18055e-015
rhumerus 6.83131 27.2883 -36.3308
rradius 67.2287
rwrist 10.4079
rhand -30.0498 56.2773
rfingers 7.12502
rthumb -3.36551 26.3241
lclavicle -4.55217e-014 3.18055e-015
lhumerus -178.031 -154.71 224.183
lradius 61.957
lwrist -26.9466
lhand -5.2634 20.7948
lfingers 7.12502
lthumb 20.5403 49.7281
rfemur 93.955 -205.24 -214.747
rtibia 39.563
rfoot -58.3997 -29.8577
rtoes 52.817
lfemur -38.1979 -4.21914 -4.61407
ltibia 66.5611
lfoot -36.5981 20.7288
ltoes -19.0035
300
root -9.74219 15.5075 -3.08584 230.908 68.6752 222.827
lowerback 2.52955 -0.624103 -0.121157
upperback -6.45809 -0.455124 2.93074
thorax -8.16922 -0.0256646 3.18994
lowerneck -6.39453 -23.0039 -13.0663
upperneck 13.5526 -33.5989 18.7852
head 10.8503 -15.0632 3.08705
rclavicle 3.69739e-014 -9.54166e-015
rhumerus 6.46562 24.8148 -33.9716
rradius 62.2543
rwrist 8.67132
rhand -29.8426 54.8849
rfingers 7.12502
rthumb -3.16548 24.9287
lclavicle 3.69739e-014 -9.54166e-015
lhumerus -175.344 -156.324 220.814
lradius 62.2117
lwrist -28.2929
lhand -9.63508 19.6166
lfingers 7.12502
lthumb 16.335 48.9487
rfemur 96.8955 -203.477 -219.568
rtibia 39.554
rfoot -60.4478 -30.1856
rtoes 53.5148
lfemur -39.5535 -6.27711 -6.71492
ltibia 66.7681
lfoot -36.1968 21.5273
ltoes -19.4353
301
root -9.74739 15.5283 -3.0344 229.989 69.7531 222.586
lowerback 3.20627 -1.02424 0.350663
upperback -6.42668 -0.938864 3.13124
thorax -8.51149 -0.284794 3.19992
lowerneck -6.098 -22.7379 -13.5349
upperneck 13.8636 -33.1407 18.3375
head 10.8233 -14.926 3.1358
rclavicle -2.36057e-014 -6.36111e-015
rhumerus 6.13303 22.9882 -31.5553
rradius 57.5468
rwrist 7.1089
rhand -29.5785 54.0885
rfingers 7.12502
rthumb -2.91041 24.1286
lclavicle -2.36057e-014 -6.36111e-015
lhumerus -172.837 -157.578 217.209
lradius 61.8344
lwrist -30.6669
lhand -14.2203 18.4476
lfingers 7.12502
lthumb 11.9167 48.0885
rfemur 98.1669 -204.544 -224.015
rtibia 39.5171
rfoot -61.9659 -31.1438
rtoes 53.6203
lfemur -38.3174 -5.80707 -7.50536
ltibia 66.1446
lfoot -36.3367 21.1421
ltoes -19.0496
302
root -9.736 15.5888 -2.98303 231.813 69.5911 225.897
lowerback 4.17063 -1.53333 2.33585
upperback -6.17561 -1.35183 4.05383
thorax -8.82369 -0.57216 3.13461
lowerneck -6.79179 -22.4058 -13.095
upperneck 14.4795 -32.3237 16.4923
head 10.5752 -14.632 2.68239
rclavicle -6.26172e-015 -3.4191e-014
rhumerus 6.41199 21.8627 -28.659
rradius 52.85
rwrist 6.63516
rhand -29.8665 52.4084
rfingers 7.12502
rthumb -3.18852 22.4524
lclavicle -6.26172e-015 -3.4191e-014
lhumerus -170.917 -157.902 213.746
lradius 63.0613
lwrist -29.3503
lhand -14.794 22.7084
lfingers 7.12502
lthumb 11.3634 52.3805
rfemur 100.744 -205.582 -224.071
rtibia 39.4751
rfoot -61.0659 -29.772
rtoes 54.5387
lfemur -36.1347 -4.96595 -6.38668
ltibia 65.2739
lfoot -35.545 21.493
ltoes -22.297
303
root -9.69677 15.6567 -2.93829 232.479 70.8785 227.57
lowerback 4.68426 -1.90057 2.89085
upperback -6.08325 -1.71665 4.61353
thorax -9.02229 -0.75794 3.48339
lowerneck -6.81359 -22.0026 -14.3755
upperneck 15.0732 -31.5765 15.9088
head 10.7774 -14.3749 2.77027
rclavicle 2.04748e-014 -3.10104e-014
rhumerus 6.80202 20.9237 -25.7006
rradius 48.5673
rwrist 7.26076
rhand -30.2289 54.4676
rfingers 7.12502
rthumb -3.53853 24.5172
lclavicle 2.04748e-014 -3.10104e-014
lhumerus -169.47 -159.474 210.63
lradius 61.2876
lwrist -32.4795
lhand -20.0106 20.3433
lfingers 7.12502
lthumb 6.32958 50.2288
rfemur 103.303 -205.588 -224.708
rtibia 39.3559
rfoot -58.5005 -28.5168
rtoes 55.7293
lfemur -33.7245 -4.12327 -6.97429
ltibia 63.8554
lfoot -34.919 21.9871
ltoes -23.8153
304
root -9.65859 15.7612 -2.87291 234.853 70.7241 231.118
lowerback 5.43815 -2.12106 4.96332
upperback -6.14804 -1.66593 5.17473
thorax -9.61757 -0.830244 2.96223
lowerneck -6.89791 -22.0216 -14.8737
upperneck 15.8559 -31.4374 14.904
head 10.9378 -14.3791 2.51744
rclavicle -8.94531e-016 1.74931e-014
rhumerus 5.67186 19.2927 -23.3288
rradius 44.8163
rwrist 8.79959
rhand -30.147 54.7231
rfingers 7.12502
rthumb -3.45939 24.7714
lclavicle -8.94531e-016 1.74931e-014
lhumerus -167.151 -158.549 206.919
lradius 61.3449
lwrist -31.4435
lhand -21.6443 23.2874
lfingers 7.12502
lthumb 4.75221 53.2141
rfemur 105.725 -206.568 -224.526
rtibia 39.2065
rfoot -57.4804 -28.3249
rtoes 56.3035
lfemur -31.3315 -3.39872 -5.72116
ltibia 62.2632
lfoot -34.3909 21.3681
ltoes -22.9534
305
root -9.61234 15.8723 -2.79322 236.484 71.3946 233.103
lowerback 5.63568 -2.07216 6.04739
upperback -6.5407 -1.40831 5.20556
thorax -10.2229 -0.773688 2.38876
lowerneck -6.74769 -22.3743 -15.0015
upperneck 16.4325 -31.7994 13.8801
head 10.992 -14.6208 2.14242
rclavicle -6.4605e-016 5.32743e-014
rhumerus 3.67653 16.4484 -21.646
rradius 40.9258
rwrist 12.1276
rhand -29.8763 54.516
rfingers 7.12502
rthumb -3.19795 24.5603
lclavicle -6.4605e-016 5.32743e-014
lhumerus -164.188 -157.448 202.638
lradius 59.9391
lwrist -32.0641
lhand -25.2094 23.0937
lfingers 7.12502
lthumb 1.30929 53.0694
rfemur 107.987 -206.277 -224.721
rtibia 39.0516
rfoot -55.6227 -29.2618
rtoes 56.3652
lfemur -29.5381 -2.60469 -5.4272
ltibia 60.344
lfoot -33.409 21.1329
ltoes -23.025
306
root -9.55522 16.0033 -2.71356 237.998 72.144 234.673
lowerback 5.419 -2.17482 7.07054
upperback -7.05091 -1.37969 5.23889
thorax -10.7156 -0.829455 1.87469
lowerneck -7.13798 -22.2024 -14.6553
upperneck 17.6991 -31.3374 12.195
head 11.0728 -14.4699 1.64974
rclavicle 3.85394e-014 -6.09275e-014
rhumerus 2.1771 13.8137 -19.8576
rradius 37.4284
rwrist 15.316
rhand -29.8121 53.4448
rfingers 7.12502
rthumb -3.13601 23.4881
lclavicle 3.85394e-014 -6.09275e-014
lhumerus -161.64 -156.251 197.963
lradius 58.0674
lwrist -32.0632
lhand -28.5502 22.4802
lfingers 7.12502
lthumb -1.91732 52.4513
rfemur 110.455 -205.622 -224.871
rtibia 38.7388
rfoot -55.0378 -28.2556
rtoes 57.0562
lfemur -27.8246 -1.87134 -5.30889
ltibia 58.1206
lfoot -32.206 20.9186
ltoes -23.5438
